<svg width="25" height="24" viewBox="0 0 25 24" fill="none" xmlns="http://www.w3.org/2000/svg">
<g id="blockchain-svgrepo-com 1" clip-path="url(#clip0_44_931)">
<path id="blockchain_1_" d="M23 22.77H18.5C18.3507 22.77 18.23 22.6493 18.23 22.5V20.52H15.02V22.5C15.02 22.6493 14.8992 22.77 14.75 22.77H10.25C10.1007 22.77 9.97998 22.6493 9.97998 22.5V20.52H6.76998V22.5C6.76998 22.6493 6.64923 22.77 6.49998 22.77H1.99998C1.85073 22.77 1.72998 22.6493 1.72998 22.5V18C1.72998 17.8508 1.85073 17.73 1.99998 17.73H3.97998V14.52H1.99998C1.85073 14.52 1.72998 14.3993 1.72998 14.25V9.75001C1.72998 9.60076 1.85073 9.48001 1.99998 9.48001H3.97998V6.27001H1.99998C1.85073 6.27001 1.72998 6.14926 1.72998 6.00001V1.50001C1.72998 1.35076 1.85073 1.23001 1.99998 1.23001H6.49998C6.64923 1.23001 6.76998 1.35076 6.76998 1.50001V3.48001H9.97998V1.50001C9.97998 1.35076 10.1007 1.23001 10.25 1.23001H14.75C14.8992 1.23001 15.02 1.35076 15.02 1.50001V3.48001H18.2292V1.50001C18.2292 1.35076 18.35 1.23001 18.4992 1.23001H22.9992C23.1485 1.23001 23.2692 1.35076 23.2692 1.50001V6.00001C23.2692 6.14926 23.1485 6.27001 22.9992 6.27001H21.0192V9.48001H23C23.1492 9.48001 23.27 9.60076 23.27 9.75001V14.25C23.27 14.3993 23.1492 14.52 23 14.52H21.02V17.7293H23C23.1492 17.7293 23.27 17.85 23.27 17.9993V22.4993C23.27 22.6493 23.1492 22.77 23 22.77ZM18.77 22.23H22.7292V18.27H18.77V22.23ZM10.52 22.23H14.48V18.27H10.52V22.23ZM2.26998 22.23H6.22998V18.27H2.26998V22.23ZM15.02 19.98H18.2292V18C18.2292 17.8508 18.35 17.73 18.4992 17.73H20.4792V14.52H18.5C18.3507 14.52 18.23 14.3993 18.23 14.25V12.27H15.02V14.25C15.02 14.3993 14.8992 14.52 14.75 14.52H12.77V17.7293H14.75C14.8992 17.7293 15.02 17.85 15.02 17.9993V19.98ZM6.76998 19.98H9.97998V18C9.97998 17.8508 10.1007 17.73 10.25 17.73H12.23V14.52H10.25C10.1007 14.52 9.97998 14.3993 9.97998 14.25V12.27H6.76998V14.25C6.76998 14.3993 6.64923 14.52 6.49998 14.52H4.51998V17.7293H6.49998C6.64923 17.7293 6.76998 17.85 6.76998 17.9993V19.98ZM20.75 13.98H22.73V10.02H18.77V13.98H20.75ZM12.5 13.98H14.48V10.02H10.52V13.98H12.5ZM4.24998 13.98H6.22998V10.02H2.26998V13.98H4.24998ZM15.02 11.73H18.2292V9.75001C18.2292 9.60076 18.35 9.48001 18.4992 9.48001H20.4792V6.27001H18.5C18.3507 6.27001 18.23 6.14926 18.23 6.00001V4.02001H15.02V6.00001C15.02 6.14926 14.8992 6.27001 14.75 6.27001H12.77V9.48001H14.75C14.8992 9.48001 15.02 9.60076 15.02 9.75001V11.73ZM6.76998 11.73H9.97998V9.75001C9.97998 9.60076 10.1007 9.48001 10.25 9.48001H12.23V6.27001H10.25C10.1007 6.27001 9.97998 6.14926 9.97998 6.00001V4.02001H6.76998V6.00001C6.76998 6.14926 6.64923 6.27001 6.49998 6.27001H4.51998V9.48001H6.49998C6.64923 9.48001 6.76998 9.60076 6.76998 9.75001V11.73ZM20.75 5.73001H22.73V1.77001H18.77V5.73001H20.75ZM12.5 5.73001H14.48V1.77001H10.52V5.73001H12.5ZM4.24998 5.73001H6.22998V1.77001H2.26998V5.73001H4.24998Z" fill="black"/>
</g>
<defs>
<clipPath id="clip0_44_931">
<rect width="24" height="24" fill="white" transform="translate(0.5)"/>
</clipPath>
</defs>
</svg>
