<svg width="6" height="24" viewBox="0 0 6 24" fill="none" xmlns="http://www.w3.org/2000/svg">
<g id="design-svgrepo-com 1">
<path id="Vector" d="M16.6509 10.8352C16.897 11.0813 17.2274 11.2148 17.5767 11.2148C17.9259 11.2148 18.2563 11.0789 18.5024 10.8352L21.2235 8.13048C21.4696 7.88438 21.6056 7.5586 21.6056 7.20938C21.6056 6.86016 21.4696 6.53438 21.2235 6.28829L18.336 3.41954C17.8415 2.92969 16.979 2.92969 16.4845 3.41954L13.7657 6.12422C13.5196 6.37032 13.3837 6.6961 13.3837 7.04532C13.3837 7.39454 13.5196 7.72032 13.7657 7.96641L16.6509 10.8352ZM14.5579 6.91173L17.279 4.20704C17.3259 4.16016 17.3821 4.15313 17.4103 4.15313C17.4384 4.15313 17.4946 4.16016 17.5415 4.20704L20.429 7.07813C20.4759 7.12501 20.4829 7.18126 20.4829 7.20938C20.4829 7.23751 20.4759 7.29376 20.429 7.34063L17.7103 10.0453C17.6634 10.0922 17.6071 10.0992 17.579 10.0992C17.5509 10.0992 17.4946 10.0922 17.4478 10.0453L14.5579 7.17657C14.511 7.12969 14.504 7.07344 14.504 7.04532C14.504 7.01719 14.511 6.9586 14.5579 6.91173ZM7.90869 13.7906C7.41416 13.3008 6.54932 13.3008 6.05713 13.7906L5.69854 14.1469C5.33994 14.5055 4.96025 15.1406 4.81963 15.6258L3.62197 19.7203C3.52119 20.0625 3.56572 20.3813 3.74619 20.6203C3.91025 20.8383 4.17275 20.9625 4.46572 20.9625C4.58291 20.9625 4.70713 20.9438 4.83135 20.9039L9.10635 19.5891C9.58916 19.4414 10.2243 19.0594 10.5806 18.7055L10.7915 18.4969C11.0376 18.2508 11.1735 17.925 11.1735 17.5758C11.1735 17.2266 11.0376 16.9008 10.7915 16.6547L7.90869 13.7906ZM9.99932 17.7094L9.78838 17.918C9.56338 18.143 9.08057 18.4313 8.77588 18.525L6.21885 19.3102L5.25088 18.15L5.89775 15.9398C5.98682 15.6375 6.27041 15.1594 6.49307 14.9391L6.85166 14.5828C6.89854 14.5359 6.95479 14.5289 6.98291 14.5289C7.01103 14.5289 7.06729 14.5359 7.11416 14.5828L9.99697 17.4492C10.0438 17.4961 10.0509 17.5524 10.0509 17.5805C10.0532 17.6086 10.0462 17.6649 9.99932 17.7094ZM8.09385 3.41954C7.59932 2.92969 6.73682 2.92969 6.24229 3.41954L3.35713 6.28829C3.11104 6.53438 2.9751 6.86016 2.9751 7.20938C2.9751 7.5586 3.11104 7.88438 3.35713 8.13048L16.4868 21.1852C16.7329 21.4313 17.0634 21.5648 17.4126 21.5648C17.7618 21.5648 18.0923 21.4289 18.3384 21.1852L21.2259 18.3141C21.472 18.068 21.6079 17.7422 21.6079 17.393C21.6079 17.0438 21.472 16.718 21.2259 16.4719L8.09385 3.41954ZM20.429 17.5242L17.5438 20.3953C17.497 20.4422 17.4407 20.4492 17.4126 20.4492C17.3845 20.4492 17.3282 20.4422 17.2813 20.3953L4.15166 7.34063C4.10479 7.29376 4.09775 7.23751 4.09775 7.20938C4.09775 7.18126 4.10479 7.12501 4.15166 7.07813L7.03682 4.20704C7.08369 4.16016 7.13994 4.15313 7.16807 4.15313C7.19619 4.15313 7.25244 4.16016 7.29932 4.20704L7.69072 4.5961L6.35244 5.92969C6.13213 6.14766 6.13213 6.50157 6.35244 6.71954C6.4626 6.82735 6.60557 6.8836 6.74854 6.8836C6.8915 6.8836 7.03682 6.82969 7.14463 6.71954L8.48525 5.38594L9.13682 6.03516L8.55791 6.61173C8.33994 6.82969 8.33994 7.1836 8.55791 7.40157C8.66807 7.50938 8.81104 7.56563 8.954 7.56563C9.09697 7.56563 9.24229 7.51172 9.3501 7.40157L9.929 6.82501L10.5806 7.47423L9.23994 8.80782C9.01963 9.02579 9.01963 9.37969 9.23994 9.59766C9.3501 9.70547 9.49307 9.76172 9.63603 9.76172C9.779 9.76172 9.92197 9.70782 10.0321 9.59766L11.3728 8.26407L12.0267 8.91329L11.4478 9.48985C11.2298 9.70782 11.2298 10.0617 11.4478 10.2797C11.5579 10.3898 11.7009 10.4438 11.8438 10.4438C11.9868 10.4438 12.1321 10.3898 12.2399 10.2797L12.8188 9.70313L13.4728 10.3524L12.1321 11.6859C11.9142 11.9039 11.9142 12.2578 12.1321 12.4758C12.2423 12.5836 12.3853 12.6398 12.5282 12.6398C12.6712 12.6398 12.8165 12.5859 12.9243 12.4758L14.2649 11.1422L14.9188 11.7914L14.3399 12.368C14.122 12.5859 14.122 12.9398 14.3399 13.1578C14.4501 13.268 14.5931 13.3219 14.736 13.3219C14.879 13.3219 15.0243 13.268 15.1321 13.1578L15.711 12.5813L16.3626 13.2305L15.022 14.5641C14.8017 14.782 14.8017 15.1359 15.022 15.3539C15.1321 15.4641 15.2751 15.518 15.4181 15.518C15.561 15.518 15.704 15.4641 15.8142 15.3539L17.1548 14.0203L17.8063 14.6695L17.2274 15.2461C17.0095 15.4641 17.0095 15.818 17.2274 16.0359C17.3376 16.1438 17.4806 16.2 17.6235 16.2C17.7665 16.2 17.9118 16.1461 18.0196 16.0359L18.5985 15.4594L19.2524 16.1086L17.9118 17.4422C17.6915 17.6602 17.6915 18.0141 17.9118 18.232C18.022 18.3399 18.1649 18.3961 18.3079 18.3961C18.4509 18.3961 18.5962 18.3422 18.704 18.232L20.0446 16.8984L20.4173 17.2711C20.4642 17.318 20.4712 17.3742 20.4712 17.4024C20.4712 17.4305 20.4759 17.4774 20.429 17.5242Z" fill="#292524"/>
</g>
</svg>
