<svg width="24" height="24" viewBox="0 0 24 24" fill="none" xmlns="http://www.w3.org/2000/svg">
<g id="marketing-analysis-marketing-research-svgrepo-com 1">
<g id="Group">
<path id="Vector" d="M20.6813 19.4438L17.7188 15.8156C19.1063 13.5375 19.4438 10.7719 18.6375 8.18438C18.5625 7.94063 18.3 7.80938 18.0563 7.88438C17.8125 7.95938 17.6719 8.22188 17.7563 8.46563C18.5157 10.8844 18.1594 13.4719 16.7719 15.5813L16.7438 15.6188C16.65 15.7875 16.6594 15.9938 16.7813 16.1438L19.9594 20.025C19.9594 20.025 20.0063 20.0813 20.0157 20.0813C20.2782 20.3813 20.2782 20.8031 20.025 21.1125C20.0157 21.1219 20.0157 21.1313 20.0063 21.1313L19.9407 21.1969C19.6407 21.45 19.2 21.45 18.8907 21.1781C18.8719 21.1594 18.8625 21.15 18.8438 21.1313L14.9625 17.9625C14.8032 17.8313 14.5782 17.8219 14.4094 17.9344L14.3719 17.9625C11.1 20.1 6.72191 19.6688 3.92816 16.9313C3.90941 16.9031 3.90004 16.875 3.88128 16.8563C0.618785 13.6125 0.618785 8.31563 3.87191 5.0625C7.12503 1.80938 12.4219 1.80938 15.675 5.0625C15.6938 5.08125 15.7219 5.1 15.75 5.10938C15.7594 5.11875 15.7782 5.1375 15.7875 5.14688C15.9469 5.34375 16.2469 5.37188 16.4438 5.20313C16.6407 5.04375 16.6688 4.74375 16.5 4.54688C16.4625 4.5 16.4063 4.44375 16.35 4.3875C12.7407 0.787504 6.86253 0.75938 3.22504 4.35938C3.21566 4.36875 3.19691 4.37813 3.18754 4.39688C1.68754 5.89688 0.750035 7.89375 0.53441 10.0031C0.44066 10.9219 0.487535 11.8406 0.656285 12.7313C1.01254 14.5594 1.89378 16.2188 3.21566 17.5406C6.24378 20.5594 10.9969 21.1125 14.6344 18.9L18.2344 21.8438C18.2532 21.8625 18.2813 21.8906 18.3 21.9094C18.6282 22.1906 19.0219 22.3219 19.4157 22.3219C19.8188 22.3219 20.2219 22.1813 20.55 21.9L20.7094 21.75C20.7375 21.7219 20.7563 21.6938 20.775 21.6563C21.2719 21.0094 21.2532 20.1094 20.7188 19.4813C20.7094 19.4719 20.6907 19.4531 20.6813 19.4438Z" fill="black"/>
<path id="Vector_2" d="M23.419 1.95939C23.3253 1.82814 23.1659 1.75314 22.9971 1.77189L19.9878 2.09064C19.819 2.10939 19.6784 2.21252 19.6128 2.36252C19.5471 2.51252 19.5659 2.69064 19.6596 2.82189L20.3253 3.73127L9.75026 11.3531C9.63776 11.4281 9.57213 11.5594 9.56276 11.6906L9.28151 15.3L4.70651 10.8281C4.61276 10.7344 4.48151 10.6875 4.35026 10.6969L3.00963 10.7906C2.75651 10.8094 2.55963 11.025 2.57838 11.2875C2.59713 11.5406 2.82213 11.7375 3.07526 11.7188L4.20963 11.6438L9.34713 16.6594C9.43151 16.7438 9.55338 16.7906 9.67526 16.7906C9.73151 16.7906 9.78776 16.7813 9.83463 16.7625C10.0034 16.6969 10.1159 16.5469 10.1346 16.3688L10.4815 11.9906L20.8971 4.50002L21.469 5.28752C21.5534 5.40939 21.694 5.47502 21.844 5.47502C21.8628 5.47502 21.8815 5.47502 21.8909 5.47502C22.0596 5.45627 22.2003 5.35314 22.2659 5.20314L23.4846 2.43752C23.5409 2.26877 23.5221 2.10002 23.419 1.95939ZM21.7315 4.07814L20.8971 2.93439L22.3034 2.78439L21.7315 4.07814Z" fill="black"/>
</g>
</g>
</svg>
